<?xml version="1.0" encoding="UTF-8" standalone="no"?>
<!DOCTYPE svg PUBLIC "-//W3C//DTD SVG 1.1//EN"
 "http://www.w3.org/Graphics/SVG/1.1/DTD/svg11.dtd">
<!-- Generated by graphviz version 2.44.0 (20200518.1210)
 -->
<!-- Title: Example Pages: 1 -->
<svg width="421pt" height="260pt"
 viewBox="0.00 0.00 420.55 260.00" xmlns="http://www.w3.org/2000/svg" xmlns:xlink="http://www.w3.org/1999/xlink">
<g id="graph0" class="graph" transform="scale(1 1) rotate(0) translate(4 256)">
<title>Example</title>
<polygon fill="white" stroke="transparent" points="-4,4 -4,-256 416.55,-256 416.55,4 -4,4"/>
<!-- loose&#45;envify -->
<g id="node1" class="node">
<title>loose&#45;envify</title>
<ellipse fill="none" stroke="black" cx="59.3" cy="-162" rx="59.11" ry="18"/>
<text text-anchor="middle" x="59.3" y="-157.8" font-family="Times,serif" font-size="14.00">loose&#45;envify</text>
</g>
<!-- react -->
<g id="node2" class="node">
<title>react</title>
<ellipse fill="none" stroke="black" cx="72.3" cy="-90" rx="29.59" ry="18"/>
<text text-anchor="middle" x="72.3" y="-85.8" font-family="Times,serif" font-size="14.00">react</text>
</g>
<!-- loose&#45;envify&#45;&gt;react -->
<g id="edge1" class="edge">
<title>loose&#45;envify&#45;&gt;react</title>
<path fill="none" stroke="black" d="M62.52,-143.7C63.95,-135.98 65.67,-126.71 67.27,-118.11"/>
<polygon fill="black" stroke="black" points="70.74,-118.58 69.13,-108.1 63.86,-117.3 70.74,-118.58"/>
</g>
<!-- react&#45;dom -->
<g id="node3" class="node">
<title>react&#45;dom</title>
<ellipse fill="none" stroke="black" cx="177.3" cy="-90" rx="50.36" ry="18"/>
<text text-anchor="middle" x="177.3" y="-85.8" font-family="Times,serif" font-size="14.00">react&#45;dom</text>
</g>
<!-- loose&#45;envify&#45;&gt;react&#45;dom -->
<g id="edge2" class="edge">
<title>loose&#45;envify&#45;&gt;react&#45;dom</title>
<path fill="none" stroke="black" d="M85.2,-145.64C102.34,-135.47 124.99,-122.03 143.54,-111.03"/>
<polygon fill="black" stroke="black" points="145.46,-113.96 152.28,-105.85 141.89,-107.94 145.46,-113.96"/>
</g>
<!-- react&#45;redux -->
<g id="node8" class="node">
<title>react&#45;redux</title>
<ellipse fill="none" stroke="black" cx="177.3" cy="-18" rx="54.99" ry="18"/>
<text text-anchor="middle" x="177.3" y="-13.8" font-family="Times,serif" font-size="14.00">react&#45;redux</text>
</g>
<!-- react&#45;&gt;react&#45;redux -->
<g id="edge6" class="edge">
<title>react&#45;&gt;react&#45;redux</title>
<path fill="none" stroke="black" d="M91.56,-76.16C106.59,-66.14 127.78,-52.02 145.34,-40.31"/>
<polygon fill="black" stroke="black" points="147.76,-42.9 154.14,-34.45 143.87,-37.08 147.76,-42.9"/>
</g>
<!-- react&#45;dom&#45;&gt;react&#45;redux -->
<g id="edge7" class="edge">
<title>react&#45;dom&#45;&gt;react&#45;redux</title>
<path fill="none" stroke="black" d="M177.3,-71.7C177.3,-63.98 177.3,-54.71 177.3,-46.11"/>
<polygon fill="black" stroke="black" points="180.8,-46.1 177.3,-36.1 173.8,-46.1 180.8,-46.1"/>
</g>
<!-- scheduler -->
<g id="node4" class="node">
<title>scheduler</title>
<ellipse fill="none" stroke="black" cx="184.3" cy="-162" rx="48.07" ry="18"/>
<text text-anchor="middle" x="184.3" y="-157.8" font-family="Times,serif" font-size="14.00">scheduler</text>
</g>
<!-- scheduler&#45;&gt;react&#45;dom -->
<g id="edge3" class="edge">
<title>scheduler&#45;&gt;react&#45;dom</title>
<path fill="none" stroke="black" d="M182.57,-143.7C181.8,-135.98 180.88,-126.71 180.02,-118.11"/>
<polygon fill="black" stroke="black" points="183.49,-117.71 179.02,-108.1 176.53,-118.4 183.49,-117.71"/>
</g>
<!-- regenerator&#45;runtime -->
<g id="node5" class="node">
<title>regenerator&#45;runtime</title>
<ellipse fill="none" stroke="black" cx="324.3" cy="-234" rx="88.5" ry="18"/>
<text text-anchor="middle" x="324.3" y="-229.8" font-family="Times,serif" font-size="14.00">regenerator&#45;runtime</text>
</g>
<!-- @babel/runtime -->
<g id="node6" class="node">
<title>@babel/runtime</title>
<ellipse fill="none" stroke="black" cx="324.3" cy="-162" rx="73.63" ry="18"/>
<text text-anchor="middle" x="324.3" y="-157.8" font-family="Times,serif" font-size="14.00">@babel/runtime</text>
</g>
<!-- regenerator&#45;runtime&#45;&gt;@babel/runtime -->
<g id="edge4" class="edge">
<title>regenerator&#45;runtime&#45;&gt;@babel/runtime</title>
<path fill="none" stroke="black" d="M324.3,-215.7C324.3,-207.98 324.3,-198.71 324.3,-190.11"/>
<polygon fill="black" stroke="black" points="327.8,-190.1 324.3,-180.1 320.8,-190.1 327.8,-190.1"/>
</g>
<!-- redux -->
<g id="node7" class="node">
<title>redux</title>
<ellipse fill="none" stroke="black" cx="301.3" cy="-90" rx="33.05" ry="18"/>
<text text-anchor="middle" x="301.3" y="-85.8" font-family="Times,serif" font-size="14.00">redux</text>
</g>
<!-- @babel/runtime&#45;&gt;redux -->
<g id="edge5" class="edge">
<title>@babel/runtime&#45;&gt;redux</title>
<path fill="none" stroke="black" d="M318.62,-143.7C316.06,-135.9 312.97,-126.51 310.12,-117.83"/>
<polygon fill="black" stroke="black" points="313.37,-116.51 306.92,-108.1 306.72,-118.7 313.37,-116.51"/>
</g>
<!-- redux&#45;&gt;react&#45;redux -->
<g id="edge8" class="edge">
<title>redux&#45;&gt;react&#45;redux</title>
<path fill="none" stroke="black" d="M279.14,-76.49C260.61,-66.02 233.84,-50.92 212.41,-38.81"/>
<polygon fill="black" stroke="black" points="214.01,-35.7 203.58,-33.83 210.57,-41.8 214.01,-35.7"/>
</g>
</g>
</svg>
